<?xml version="1.0" encoding="utf-8"?>
<!-- Generator: Adobe Illustrator 21.0.2, SVG Export Plug-In . SVG Version: 6.00 Build 0)  -->
<svg version="1.1" id="Layer_1" xmlns="http://www.w3.org/2000/svg" xmlns:xlink="http://www.w3.org/1999/xlink" x="0px" y="0px"
	 viewBox="0 0 100 100" style="enable-background:new 0 0 100 100;" xml:space="preserve">
<style type="text/css">
	.st0{fill:#FFFFFF;}
	.st1{fill:url(#SVGID_1_);}
	.st2{opacity:0.4;fill:#78909C;}
	.st3{fill:url(#SVGID_2_);}
	.st4{fill:#78909C;}
</style>
<g>
	<path class="st0" d="M82.4,82.8c-1.6,2.2-3.5,4.7-7.2,4.7c-3.7,0-5.6-2.5-7.2-4.7c-1.5-2-2.8-3.8-5.5-3.8c-2.7,0-4,1.8-5.5,3.8
		c-1.6,2.2-3.5,4.7-7.2,4.7c-3.7,0-5.6-2.5-7.2-4.7C41,80.7,39.7,79,37,79c-2.7,0-4.8,1.3-6.4,3.3c-1.6,2.2-2.7,5.2-6.4,5.2
		c-3.7,0-5.6-2.5-7.2-4.7c-1.5-2-2.8-3.8-5.5-3.8c-0.1,0-0.2,0-0.3-0.1v-2.5c0.1,0,0.2-0.1,0.3-0.1c3.7,0,5.6,2.5,7.2,4.7
		c1.5,2,2.8,3.8,5.5,3.8c2.7,0,4-1.8,5.5-3.8c1.6-2.2,3.5-4.7,7.2-4.7c3.7,0,5.6,2.5,7.2,4.7c1.5,2,2.8,3.8,5.5,3.8
		c2.7,0,4-1.8,5.5-3.8c1.6-2.2,3.5-4.7,7.2-4.7c3.7,0,5.6,2.5,7.2,4.7c1.5,2,2.8,3.8,5.5,3.8c2.7,0,4-1.8,5.5-3.8
		c1.6-2.2,3.5-4.7,7.2-4.7c1.1,0,2.1,0.2,2.9,0.6c1.1-1.7,2.2-3.5,3.1-5.4c12-24.3,1.9-53.9-22.4-65.9C47.2-6.3,17.6,3.7,5.7,28.1
		C-6.3,52.4,3.7,82,28.1,93.9c21.6,10.6,47.3,3.9,61.2-14.8C88.9,79,88.4,79,87.9,79C85.2,79,83.9,80.7,82.4,82.8z"/>
	<linearGradient id="SVGID_1_" gradientUnits="userSpaceOnUse" x1="4.2131" y1="45.2927" x2="95.3407" y2="45.2927">
		<stop  offset="0" style="stop-color:#62C9D8"/>
		<stop  offset="1" style="stop-color:#EE337B"/>
	</linearGradient>
	<path class="st1" d="M49.8,4.3C24.6,4.3,4.2,24.7,4.2,49.8c0,13,4.4,24.1,13.2,32.4c0,0,3.8,4.7,7.1,4c8.6-2,8.6-14.4,18.8-3.8
		c6.6,6.9,8.7,2.4,18.5-4.3c2.4-1.7,9,7.8,13,7.4c5.1-0.5,7.4-3.1,8.7-4.4c8-8.6,12-18.7,12-31.4C95.3,24.7,74.9,4.3,49.8,4.3z"/>
	<ellipse class="st2" cx="52" cy="49.7" rx="18.9" ry="17.3"/>
	<path class="st0" d="M78.3,55.1c0.2,0.6,0.5,1.1,0.9,1.6c1.3,1.2,3.4,1.2,4.7-0.2l-0.6-0.6c-0.9,1-2.5,1-3.4,0.1
		c-0.5-0.4-0.8-1-0.8-1.7c0-0.7,0.2-1.3,0.7-1.7L79,52C78.2,52.8,78,54,78.3,55.1z"/>
	<path class="st0" d="M48.2,81.8c0.5,0.3,1.1,0.4,1.7,0.4c1.7-0.1,3.1-1.5,3.1-3.3l-0.8,0c0,1.3-1,2.4-2.3,2.4
		c-0.6,0-1.2-0.2-1.7-0.6c-0.5-0.4-0.7-1-0.7-1.6l-0.8,0C46.6,80.3,47.3,81.3,48.2,81.8z"/>
	<path class="st0" d="M56.9,24.5c-0.4-0.2-0.9-0.3-1.4-0.3c-1.3,0-2.5,0.7-3,1.9c-0.8,1.7,0,3.6,1.6,4.4c0.4,0.2,0.9,0.3,1.4,0.3
		c1.3,0,2.5-0.7,3-1.9C59.3,27.2,58.5,25.2,56.9,24.5z M57.6,28.4c-0.4,0.8-1.2,1.3-2.1,1.3c-0.3,0-0.6-0.1-0.9-0.2
		c-1.1-0.5-1.7-1.9-1.1-3c0.4-0.8,1.2-1.3,2.1-1.3c0.3,0,0.6,0.1,0.9,0.2c0.6,0.3,1,0.7,1.2,1.3C57.9,27.3,57.8,27.9,57.6,28.4z"/>
	<path class="st0" d="M93.4,52.9l-5.2,2.1l-1.4,5.5l5.2-2.1L93.4,52.9z M88.9,55.7l3.2-1.3l-0.9,3.4L88,59.1L88.9,55.7z"/>
	<path class="st0" d="M47.2,14.9l1.4-4.4l-2.7-3.8l-1.4,4.4L47.2,14.9z M47.8,10.6l-0.9,2.7L45.3,11l0.9-2.7L47.8,10.6z"/>
	<path class="st0" d="M81.5,23.9c-0.3-0.2-0.7-0.1-0.8,0.2c-0.2,0.4-0.6,0.6-1,0.7c-0.4,0.1-0.8,0-1.2-0.3c-0.6-0.5-1.4-0.6-2.1-0.5
		c-0.7,0.1-1.4,0.6-1.8,1.3c-0.2,0.4-0.6,0.6-1,0.7c-0.4,0.1-0.8,0-1.2-0.3c-0.3-0.2-0.7-0.1-0.9,0.1c-0.2,0.3-0.1,0.7,0.1,0.9
		c0,0,0.1,0,0.1,0.1c0.6,0.4,1.3,0.6,2.1,0.4c0.8-0.1,1.4-0.6,1.8-1.3c0.2-0.4,0.6-0.6,1-0.7c0.4-0.1,0.8,0,1.2,0.3
		c0.6,0.5,1.4,0.7,2.1,0.5c0.8-0.1,1.4-0.6,1.8-1.3C81.9,24.5,81.8,24.1,81.5,23.9z"/>
	<path class="st0" d="M69.6,63.8c0-0.5,0.1-1,0.5-1.4c0.4-0.4,0.8-0.6,1.4-0.6c0.4,0,0.8-0.3,0.8-0.7c0-0.4-0.3-0.8-0.7-0.8
		c-0.4,0-0.8,0.1-1.2,0.2c-0.5,0.2-0.9,0.5-1.3,0.8c-0.7,0.7-1,1.6-0.9,2.6c0,0.5-0.1,1-0.5,1.4c-0.4,0.4-0.8,0.6-1.4,0.6
		c-1,0-1.9,0.3-2.5,1c-0.7,0.7-1,1.6-0.9,2.6c0,0.4,0.4,0.7,0.8,0.7c0.4,0,0.7-0.4,0.7-0.8c0-0.5,0.1-1,0.5-1.4
		c0.4-0.4,0.8-0.6,1.4-0.6c1,0,1.9-0.3,2.5-1C69.3,65.6,69.7,64.7,69.6,63.8z"/>
	<polygon class="st0" points="29.1,23 25,21.7 28.7,18.9 28.5,17.6 22.5,22.1 29.3,24.3 	"/>
	<polygon class="st0" points="40.4,24.3 48,26 44.9,18.9 43.9,20 45.8,24.2 41.3,23.2 	"/>
	<polygon class="st0" points="84.9,45.4 82.1,40.5 79.9,45.6 80.9,45.5 82.2,42.5 83.9,45.4 	"/>
	<polygon class="st0" points="59.8,74.8 57.6,70.9 55.8,74.9 56.6,74.9 57.7,72.5 59,74.8 	"/>
	<polygon class="st0" points="35.3,22.8 40.8,10.4 39.7,10.2 34.2,22.7 	"/>
	<rect x="80.6" y="66.8" transform="matrix(0.6883 -0.7255 0.7255 0.6883 -26.1335 80.8127)" class="st0" width="0.7" height="8"/>
	<path class="st0" d="M73.8,14.9c-1.2,0.3-1.8,1.4-1.5,2.6c0.4,1.2,1.5,1.7,2.6,1.4c1.2-0.4,1.8-1.4,1.5-2.6S75,14.5,73.8,14.9z"/>
	<path class="st0" d="M85.4,29.2c-0.5,0.2-0.8,0.6-0.7,1.1c0.2,0.5,0.7,0.8,1.2,0.6c0.5-0.2,0.8-0.6,0.7-1.1S85.9,29,85.4,29.2z"/>
	<path class="st0" d="M70,71.2c-1,0.3-1.6,1.3-1.3,2.3c0.3,1.1,1.3,1.5,2.4,1.2c1.1-0.4,1.6-1.3,1.3-2.3
		C72.1,71.3,71.1,70.8,70,71.2z"/>
	<polygon class="st0" points="57.3,7.7 54,18.1 52.3,17.5 52,18.3 54.8,19.3 58.6,7.3 55.9,6.2 55.6,7.1 	"/>
	<path class="st0" d="M90.7,46.5c-0.1-0.4-0.1-0.9-0.1-1.3c0-0.5,0.2-1.2,1.4-1.2l0-0.8c-1.2,0-1.3-0.7-1.3-1.3
		c0-0.5,0.1-0.9,0.2-1.4c0.1-0.5,0.2-0.9,0.2-1.4c0-1.5-0.9-2.2-2.3-2.2l-0.3,0l0,0.9l0.3,0c1,0,1.3,0.6,1.3,1.5
		c0,0.4-0.1,0.8-0.2,1.2c-0.1,0.4-0.2,0.8-0.2,1.2c0,1.1,0.4,1.6,1.1,1.8l0,0c-0.7,0.2-1.2,0.7-1.2,1.8c0,0.4,0,0.9,0.1,1.3
		c0,0.4,0.1,0.8,0.1,1.2c0,0.9-0.4,1.4-1.4,1.4l-0.3,0l0,0.9l0.3,0c1.4,0,2.4-0.5,2.5-2.2C90.8,47.4,90.7,47,90.7,46.5z"/>
	<path class="st0" d="M63.4,30.2c0.1,0.4,0.3,0.7,0.6,1c0.8,0.8,2.2,0.7,3-0.1l-0.4-0.4c-0.6,0.6-1.6,0.7-2.2,0.1
		c-0.3-0.3-0.5-0.7-0.5-1.1c0-0.4,0.1-0.8,0.4-1.1l-0.4-0.4C63.4,28.8,63.2,29.6,63.4,30.2z"/>
	<path class="st0" d="M15,29.4c-0.3-0.2-0.6-0.4-1-0.5c-1.1-0.2-2.1,0.6-2.3,1.7l0.5,0.1c0.1-0.8,0.9-1.4,1.7-1.2
		c0.4,0.1,0.7,0.3,1,0.6c0.2,0.3,0.3,0.7,0.3,1.1l0.5,0.1C15.8,30.5,15.6,29.8,15,29.4z"/>
	<path class="st0" d="M81.7,32.7c-0.2-0.1-0.5-0.2-0.7-0.2c-0.6,0-1.2,0.4-1.5,1c-0.4,0.8,0,1.8,0.8,2.2c0.2,0.1,0.5,0.2,0.7,0.2
		c0.6,0,1.2-0.4,1.5-1C82.9,34.1,82.5,33.1,81.7,32.7z M82.1,34.7c-0.2,0.4-0.6,0.7-1.1,0.7c-0.2,0-0.3,0-0.5-0.1
		c-0.6-0.3-0.8-1-0.6-1.5c0.2-0.4,0.6-0.7,1.1-0.7c0.2,0,0.3,0,0.5,0.1c0.3,0.1,0.5,0.4,0.6,0.6C82.2,34.1,82.2,34.4,82.1,34.7z"/>
	<path class="st0" d="M50.9,69.5c-0.2-0.1-0.5-0.2-0.7-0.2c-0.6,0-1.2,0.4-1.5,1c-0.4,0.8,0,1.8,0.8,2.2c0.2,0.1,0.5,0.2,0.7,0.2
		c0.6,0,1.2-0.4,1.5-1C52.1,70.9,51.8,69.9,50.9,69.5z M51.3,71.5c-0.2,0.4-0.6,0.7-1.1,0.7c-0.2,0-0.3,0-0.5-0.1
		c-0.6-0.3-0.8-1-0.6-1.5c0.2-0.4,0.6-0.7,1.1-0.7c0.2,0,0.3,0,0.5,0.1c0.3,0.1,0.5,0.4,0.6,0.6C51.4,70.9,51.4,71.3,51.3,71.5z"/>
	<path class="st0" d="M26.7,13.1C26.5,13,26.4,13,26.2,13c-0.4,0-0.8,0.2-1,0.6c-0.2,0.5,0,1.2,0.5,1.4c0.1,0.1,0.3,0.1,0.4,0.1
		c0.4,0,0.8-0.2,1-0.6C27.5,13.9,27.2,13.3,26.7,13.1z M26.9,14.3c-0.1,0.3-0.4,0.4-0.7,0.4c-0.1,0-0.2,0-0.3-0.1
		c-0.4-0.2-0.5-0.6-0.4-1c0.1-0.3,0.4-0.4,0.7-0.4c0.1,0,0.2,0,0.3,0.1c0.2,0.1,0.3,0.2,0.4,0.4C27,14,27,14.2,26.9,14.3z"/>
	<path class="st0" d="M81,64.1c0-0.2-0.2-0.4-0.5-0.3c-0.3,0.1-0.5,0-0.7-0.2c-0.2-0.2-0.3-0.4-0.4-0.7c0-0.5-0.3-0.9-0.7-1.2
		c-0.4-0.3-0.9-0.4-1.4-0.3c-0.3,0.1-0.5,0-0.7-0.2c-0.2-0.2-0.3-0.4-0.4-0.7c0-0.2-0.2-0.4-0.4-0.4c-0.2,0-0.4,0.2-0.4,0.4
		c0,0,0,0,0,0.1c0.1,0.5,0.3,0.9,0.7,1.2c0.4,0.3,0.9,0.4,1.4,0.3c0.3,0,0.5,0,0.7,0.2c0.2,0.2,0.3,0.4,0.4,0.7
		c0,0.5,0.3,0.9,0.7,1.2c0.4,0.3,0.9,0.4,1.4,0.3C80.9,64.5,81,64.3,81,64.1z"/>
	<polygon class="st0" points="89.5,66.2 86.9,66.8 88,64.1 87.5,63.4 85.6,67.8 90,66.8 	"/>
	<path class="st0" d="M32.8,36.4c-0.5,0.2-0.8,0.6-0.7,1.2c0.2,0.6,0.7,0.8,1.2,0.6c0.5-0.2,0.8-0.6,0.7-1.2
		C33.8,36.5,33.3,36.2,32.8,36.4z"/>
	<path class="st0" d="M62.7,15.3c0.2-0.2,0.4-0.5,0.7-0.7c0.3-0.2,0.7-0.5,1.3,0.2l0.5-0.4c-0.6-0.6-0.3-1,0-1.3
		c0.3-0.2,0.5-0.4,0.8-0.6c0.3-0.2,0.6-0.4,0.8-0.6c0.8-0.7,0.7-1.6,0-2.3l-0.2-0.2l-0.5,0.4l0.1,0.2c0.4,0.5,0.3,1-0.2,1.4
		c-0.2,0.2-0.5,0.3-0.7,0.5c-0.3,0.2-0.5,0.3-0.7,0.5c-0.6,0.5-0.6,1-0.4,1.5l0,0c-0.4-0.3-1-0.3-1.5,0.2c-0.2,0.2-0.4,0.4-0.6,0.7
		c-0.2,0.2-0.4,0.4-0.6,0.6c-0.5,0.4-1,0.5-1.4,0L60,15.2l-0.5,0.4l0.2,0.2c0.6,0.7,1.5,1,2.4,0.2C62.3,15.8,62.5,15.6,62.7,15.3z"
		/>
	<path class="st0" d="M79.7,77.8c-1.3,0.8-3.5,2.6-4.8,3.9l-2.1-1.3c1.8-1.3,4.3-2.9,5.6-3.4L79.7,77.8z"/>
	<path class="st0" d="M69.9,36.4c0.6-1,1.4-2.9,1.8-4.2l1.8,0.1c-0.7,1.5-1.8,3.4-2.5,4.2L69.9,36.4z"/>
	<path class="st0" d="M57.9,34.3c-8.5-4.2-18.9-0.7-23.1,7.9c-4.2,8.5-0.7,18.9,7.9,23.1c8.5,4.2,18.9,0.7,23.1-7.9
		C69.9,48.9,66.4,38.5,57.9,34.3z"/>
	<g>
		<linearGradient id="SVGID_2_" gradientUnits="userSpaceOnUse" x1="40.0565" y1="50.2543" x2="47.3843" y2="50.2543">
			<stop  offset="0" style="stop-color:#62C9D8"/>
			<stop  offset="1" style="stop-color:#EE337B"/>
		</linearGradient>
		<rect x="40.1" y="46.6" class="st3" width="7.3" height="7.3"/>
		<path class="st0" d="M41.2,53.4v-6.3h2.9c1.4,0,2.1,0.9,2.1,2c0,1.1-0.8,2-2.1,2h-1.6v2.2H41.2z M44.9,49.1c0-0.5-0.4-0.8-0.9-0.8
			h-1.4V50H44C44.5,50,44.9,49.7,44.9,49.1z"/>
		<path class="st4" d="M54.4,52.5l0.7-1c0.4,0.5,1.1,0.9,2,0.9c0.7,0,1.1-0.3,1.1-0.7c0-1.1-3.6-0.3-3.6-2.7c0-1,0.9-1.9,2.4-1.9
			c1,0,1.8,0.3,2.5,0.9l-0.7,1c-0.5-0.5-1.2-0.7-1.8-0.7c-0.6,0-0.9,0.3-0.9,0.6c0,1,3.6,0.3,3.6,2.7c0,1.2-0.8,2-2.5,2
			C55.8,53.5,55,53.1,54.4,52.5z"/>
		<path class="st4" d="M48,50.3c0-1.9,1.5-3.3,3.4-3.3c1.4,0,2.2,0.8,2.6,1.5l-1.2,0.6c-0.3-0.5-0.8-0.9-1.5-0.9c-1.1,0-2,0.9-2,2.1
			s0.8,2.1,2,2.1c0.7,0,1.2-0.4,1.5-0.9L54,52c-0.5,0.8-1.2,1.5-2.6,1.5C49.4,53.5,48,52.2,48,50.3z"/>
	</g>
	<path class="st0" d="M89.9,74.8c-0.1,0-2.4,1.3-2.4,1.3s-0.1,0.1-0.2,0.3c-0.1,0.1-0.2,0.3-0.3,0.3c-2.6,0.6-2.9,2.6-4.2,4.4
		c-1.6,2-3,3.8-5.8,3.8c-2.8,0-4.2-1.8-5.8-3.8c-1.7-2.2-3.7-4.7-7.6-4.7c-3.9,0-5.9,2.5-7.6,4.7c-1.6,2-3,3.8-5.8,3.8
		c-2.8,0-4.2-1.8-5.8-3.8c-1.7-2.2-3.7-4.7-7.6-4.7c-3.9,0-5.9,2.5-7.6,4.7c-1.6,2-3,3.8-5.8,3.8c-2.8,0-4.2-1.8-5.8-3.8
		c-1.6-2.1-2.1-4.4-5.4-4.7l-1-1.4c0,0-0.9-0.7-1-0.7l-0.7,3.2c0.1,0,0.5,0.9,0.6,0.9c2.2,0.9,3.6,2.9,5.2,5
		c1.7,2.2,4.2,4.7,8.1,4.7c3.9,0,5.8-3.1,7.6-5.3c1.6-2,2.5-3.1,5.3-3.1c2.8,0,3.9,1.9,5.5,4c1.7,2.2,3.9,4.5,7.8,4.5
		c3.9,0,6.4-3.1,8.1-5.3c1.6-2,2.9-3.2,5.7-3.2c2.8,0,3.4,2.3,5,4.4c1.7,2.2,4.3,4.1,8.2,4.1c3.9,0,6.2-3.1,7.9-5.3
		c1.6-2,2.7-2,4.1-3.4c0.2-0.2,0.6-0.3,0.6-0.3l1.5-2.2C90.8,77,90.2,74.8,89.9,74.8z"/>
	<path class="st2" d="M10.9,57C7.1,31.6,24.2,8,49,4.3c-1.9,0-3.9,0.2-5.8,0.5C17.8,8.3,1,32.1,4.8,57.5c1,7,3.6,13.4,7.4,18.8
		C21.9,90.6,39.3,98.7,57,96.8c0,0,0,0,0.1,0C34.4,97.2,14.4,80.4,10.9,57z"/>
	<polygon class="st0" points="75.6,41 73.9,50.2 72.3,50 72.2,50.7 74.6,51.2 76.7,40.5 74.2,40 74.1,40.8 	"/>
	<path class="st0" d="M21.2,61.3c-0.6,0.2-1.2,0.3-1.8,0.2c-1.8-0.3-3-2.1-2.6-3.9l0.8,0.2c-0.2,1.3,0.6,2.6,1.9,2.8
		c0.6,0.1,1.3,0,1.8-0.4c0.5-0.4,0.9-0.9,1-1.6l0.8,0.2C23,60,22.2,60.9,21.2,61.3z"/>
	<path class="st0" d="M20.9,70.5l2.4,5.1l2.6-5l-2.4-5.1L20.9,70.5z M23.4,73.7l-1.5-3.2l1.6-3.1l1.5,3.2L23.4,73.7z"/>
	<path class="st0" d="M18.6,50.3c0.3-0.2,0.7-0.1,0.8,0.2c0.2,0.4,0.6,0.6,1,0.7c0.4,0.1,0.8,0,1.2-0.3c0.6-0.5,1.4-0.6,2.1-0.5
		c0.7,0.1,1.4,0.6,1.8,1.3c0.2,0.4,0.6,0.6,1,0.7c0.4,0.1,0.8,0,1.2-0.3c0.3-0.2,0.7-0.1,0.9,0.1c0.2,0.3,0.1,0.7-0.1,0.9
		c0,0-0.1,0-0.1,0.1c-0.6,0.4-1.3,0.6-2.1,0.4c-0.8-0.1-1.4-0.6-1.8-1.3c-0.2-0.4-0.6-0.6-1-0.7c-0.4-0.1-0.8,0-1.2,0.3
		c-0.6,0.5-1.4,0.7-2.1,0.5c-0.8-0.1-1.4-0.6-1.8-1.3C18.2,50.9,18.3,50.5,18.6,50.3z"/>
	<path class="st0" d="M40.9,69.3c0.2-0.4,0.1-0.8,0-1.2c-0.2-0.4-0.5-0.6-0.9-0.7c-0.3-0.1-0.5-0.4-0.4-0.7c0.1-0.3,0.4-0.5,0.7-0.4
		c0.3,0.1,0.6,0.2,0.9,0.4c0.3,0.2,0.6,0.6,0.8,0.9c0.3,0.7,0.4,1.4,0.1,2.1c-0.2,0.4-0.1,0.8,0,1.2c0.2,0.4,0.5,0.6,0.9,0.7
		c0.7,0.2,1.3,0.7,1.7,1.3c0.3,0.7,0.4,1.4,0.1,2.1c-0.1,0.3-0.5,0.5-0.8,0.3c-0.3-0.1-0.5-0.5-0.3-0.8c0.2-0.4,0.1-0.8,0-1.2
		c-0.2-0.4-0.5-0.6-0.9-0.7c-0.7-0.2-1.3-0.7-1.7-1.3C40.7,70.7,40.6,70,40.9,69.3z"/>
	<polygon class="st0" points="26.2,46.9 29,42 31.2,47.1 30.2,47.1 28.9,44 27.3,46.9 	"/>
	<rect x="29.8" y="73.1" transform="matrix(0.991 -0.1336 0.1336 0.991 -9.5137 5.1683)" class="st0" width="8" height="0.7"/>
	<path class="st0" d="M12.4,36.2c1.2,0.3,1.8,1.4,1.5,2.6c-0.4,1.2-1.5,1.7-2.7,1.4c-1.2-0.4-1.9-1.4-1.5-2.6S11.1,35.9,12.4,36.2z"
		/>
	<path class="st0" d="M17,23.1c0.5,0.2,0.8,0.6,0.7,1.1c-0.2,0.5-0.7,0.8-1.2,0.6c-0.5-0.2-0.8-0.6-0.7-1.1
		C15.9,23.2,16.4,23,17,23.1z"/>
	<path class="st0" d="M33.4,63.3c0.7,0.2,1.1,0.9,0.9,1.6c-0.2,0.8-0.9,1.1-1.6,0.8c-0.8-0.2-1.1-0.9-0.9-1.6
		C32,63.5,32.7,63.1,33.4,63.3z"/>
	<path class="st0" d="M11.2,63.6c-0.2-0.5-0.4-0.9-0.6-1.4c-0.3-0.5-0.8-1.1-2-0.5l-0.5-0.8c1.1-0.6,1-1.4,0.7-1.9
		c-0.2-0.5-0.6-0.9-0.9-1.3c-0.3-0.4-0.6-0.8-0.9-1.3c-0.8-1.5-0.2-2.7,1.2-3.4l0.3-0.2l0.5,0.9l-0.3,0.2c-0.9,0.5-1,1.2-0.5,2.1
		C8.5,56.3,8.8,56.7,9,57c0.3,0.4,0.6,0.7,0.8,1.2c0.6,1,0.4,1.8-0.2,2.4l0,0c0.8-0.2,1.6,0.1,2.1,1.1c0.2,0.4,0.4,0.9,0.5,1.3
		c0.2,0.4,0.3,0.8,0.5,1.2c0.5,0.9,1.2,1.2,2.1,0.7l0.3-0.2l0.5,0.9l-0.3,0.2c-1.3,0.7-2.7,0.7-3.6-0.9C11.6,64.5,11.4,64,11.2,63.6
		z"/>
	<path class="st0" d="M41.1,32c-0.1,0.4-0.3,0.7-0.6,1c-0.8,0.8-2.2,0.7-3-0.1l0.4-0.4c0.6,0.6,1.6,0.7,2.2,0.1
		c0.3-0.3,0.5-0.7,0.5-1.1c0-0.4-0.1-0.8-0.4-1.1l0.4-0.4C41.1,30.6,41.2,31.3,41.1,32z"/>
	<path class="st0" d="M66.9,21.4c-0.1,0.4-0.3,0.7-0.6,1c-0.8,0.8-2.2,0.7-3-0.1l0.4-0.4c0.6,0.6,1.6,0.7,2.2,0.1
		c0.3-0.3,0.5-0.7,0.5-1.1c0-0.4-0.1-0.8-0.4-1.1l0.4-0.4C66.9,20,67.1,20.8,66.9,21.4z"/>
	<path class="st0" d="M31.1,27.3c0.3-0.2,0.6-0.4,1-0.5c1.1-0.2,2.1,0.6,2.3,1.7l-0.5,0.1c-0.1-0.8-0.9-1.4-1.7-1.2
		c-0.4,0.1-0.7,0.3-1,0.6C31,28.2,30.9,28.6,31,29l-0.5,0.1C30.3,28.4,30.6,27.7,31.1,27.3z"/>
	<path class="st0" d="M23.6,31.5c0.3,0.6,0.9,1,1.5,1c0.2,0,0.5,0,0.7-0.2c0.8-0.4,1.2-1.4,0.8-2.2c-0.3-0.6-0.9-1-1.5-1
		c-0.2,0-0.5,0-0.7,0.2C23.6,29.7,23.2,30.7,23.6,31.5z M24.1,30.4c0.1-0.3,0.3-0.5,0.6-0.6c0.2-0.1,0.3-0.1,0.5-0.1
		c0.5,0,0.9,0.3,1.1,0.7c0.3,0.6,0,1.3-0.6,1.5c-0.2,0.1-0.3,0.1-0.5,0.1c-0.5,0-0.9-0.3-1.1-0.7C24,31,24,30.7,24.1,30.4z"/>
	<path class="st0" d="M22.4,81c0-0.2,0.2-0.4,0.5-0.3c0.3,0.1,0.5,0,0.7-0.2c0.2-0.2,0.3-0.4,0.4-0.7c0-0.5,0.3-0.9,0.7-1.2
		c0.4-0.3,0.9-0.4,1.4-0.3c0.3,0.1,0.5,0,0.7-0.2c0.2-0.2,0.3-0.4,0.4-0.7c0-0.2,0.2-0.4,0.4-0.4c0.2,0,0.4,0.2,0.4,0.4
		c0,0,0,0,0,0.1c-0.1,0.5-0.3,0.9-0.7,1.2c-0.4,0.3-0.9,0.4-1.4,0.3c-0.3-0.1-0.5,0-0.7,0.2c-0.2,0.2-0.3,0.4-0.4,0.7
		c0,0.5-0.3,0.9-0.7,1.2c-0.4,0.3-0.9,0.4-1.4,0.3C22.5,81.4,22.4,81.2,22.4,81z"/>
	<polygon class="st0" points="14,72.4 16.7,73 15.6,70.4 16.1,69.7 17.9,74.1 13.5,73.1 	"/>
	<path class="st0" d="M24.2,37.8c-0.2-0.2-0.4-0.5-0.7-0.7c-0.3-0.2-0.7-0.5-1.3,0.2l-0.5-0.4c0.6-0.6,0.3-1,0-1.3
		c-0.3-0.2-0.5-0.4-0.8-0.6c-0.3-0.2-0.6-0.4-0.8-0.6c-0.8-0.7-0.7-1.6,0-2.3l0.2-0.2l0.5,0.4l-0.1,0.2c-0.4,0.5-0.3,1,0.2,1.4
		c0.2,0.2,0.5,0.3,0.7,0.5c0.3,0.2,0.5,0.3,0.7,0.5c0.6,0.5,0.6,1,0.4,1.5l0,0c0.4-0.3,1-0.3,1.5,0.2c0.2,0.2,0.4,0.4,0.6,0.7
		c0.2,0.2,0.4,0.4,0.6,0.6c0.5,0.4,1,0.5,1.4,0l0.1-0.2l0.5,0.4l-0.2,0.2c-0.6,0.7-1.5,1-2.4,0.2C24.6,38.3,24.4,38,24.2,37.8z"/>
	<path class="st0" d="M7.2,45.4c1.3,0.8,3.5,2.6,4.8,3.9l2.1-1.3c-1.8-1.3-4.3-2.9-5.6-3.4L7.2,45.4z"/>
	<path class="st0" d="M17.7,46.8c0.8-0.8,2.5-2.1,3.6-2.8l-0.5-1.7c-1.3,1-2.8,2.6-3.4,3.4L17.7,46.8z"/>
	<polygon class="st0" points="30,56.9 28.5,63.4 29.5,63.6 29.4,64.1 27.7,63.7 29.5,56.2 31.2,56.6 31.1,57.1 	"/>
	<path class="st0" d="M87.4,76.2c0,0-0.3,0.4-0.5,0.5c-0.4,0.2,0.4,0.2,0.5,0.3c0.1,0,0.6-0.8,0.6-0.8H87.4z"/>
</g>
</svg>
